<?xml version="1.0" encoding="utf-8"?>
<svg xmlns="http://www.w3.org/2000/svg" xmlns:xlink="http://www.w3.org/1999/xlink" style="margin: auto; display: block; shape-rendering: auto;" width="311px" height="311px" viewBox="0 0 100 100" preserveAspectRatio="xMidYMid">
<g transform="rotate(0 50 50)">
  <rect x="46.5" y="23" rx="3.24" ry="3.24" width="7" height="12" fill="#0a0a0a">
    <animate attributeName="opacity" values="1;0" keyTimes="0;1" dur="3.571428571428571s" begin="-3.174603174603174s" repeatCount="indefinite"></animate>
  </rect>
</g><g transform="rotate(40 50 50)">
  <rect x="46.5" y="23" rx="3.24" ry="3.24" width="7" height="12" fill="#0a0a0a">
    <animate attributeName="opacity" values="1;0" keyTimes="0;1" dur="3.571428571428571s" begin="-2.7777777777777772s" repeatCount="indefinite"></animate>
  </rect>
</g><g transform="rotate(80 50 50)">
  <rect x="46.5" y="23" rx="3.24" ry="3.24" width="7" height="12" fill="#0a0a0a">
    <animate attributeName="opacity" values="1;0" keyTimes="0;1" dur="3.571428571428571s" begin="-2.3809523809523805s" repeatCount="indefinite"></animate>
  </rect>
</g><g transform="rotate(120 50 50)">
  <rect x="46.5" y="23" rx="3.24" ry="3.24" width="7" height="12" fill="#0a0a0a">
    <animate attributeName="opacity" values="1;0" keyTimes="0;1" dur="3.571428571428571s" begin="-1.9841269841269837s" repeatCount="indefinite"></animate>
  </rect>
</g><g transform="rotate(160 50 50)">
  <rect x="46.5" y="23" rx="3.24" ry="3.24" width="7" height="12" fill="#0a0a0a">
    <animate attributeName="opacity" values="1;0" keyTimes="0;1" dur="3.571428571428571s" begin="-1.587301587301587s" repeatCount="indefinite"></animate>
  </rect>
</g><g transform="rotate(200 50 50)">
  <rect x="46.5" y="23" rx="3.24" ry="3.24" width="7" height="12" fill="#0a0a0a">
    <animate attributeName="opacity" values="1;0" keyTimes="0;1" dur="3.571428571428571s" begin="-1.1904761904761902s" repeatCount="indefinite"></animate>
  </rect>
</g><g transform="rotate(240 50 50)">
  <rect x="46.5" y="23" rx="3.24" ry="3.24" width="7" height="12" fill="#0a0a0a">
    <animate attributeName="opacity" values="1;0" keyTimes="0;1" dur="3.571428571428571s" begin="-0.7936507936507935s" repeatCount="indefinite"></animate>
  </rect>
</g><g transform="rotate(280 50 50)">
  <rect x="46.5" y="23" rx="3.24" ry="3.24" width="7" height="12" fill="#0a0a0a">
    <animate attributeName="opacity" values="1;0" keyTimes="0;1" dur="3.571428571428571s" begin="-0.39682539682539675s" repeatCount="indefinite"></animate>
  </rect>
</g><g transform="rotate(320 50 50)">
  <rect x="46.5" y="23" rx="3.24" ry="3.24" width="7" height="12" fill="#0a0a0a">
    <animate attributeName="opacity" values="1;0" keyTimes="0;1" dur="3.571428571428571s" begin="0s" repeatCount="indefinite"></animate>
  </rect>
</g>
<!-- [ldio] generated by https://loading.io/ --></svg>